<mxfile host="app.diagrams.net" agent="Mozilla/5.0 (Windows NT 10.0; Win64; x64) AppleWebKit/537.36 (KHTML, like Gecko) Chrome/136.0.0.0 Safari/537.36 Edg/136.0.0.0" version="26.2.15">
  <diagram name="第 1 页" id="HnzyXPqvk7F0VSkloKVb">
    <mxGraphModel dx="831" dy="436" grid="1" gridSize="10" guides="1" tooltips="1" connect="1" arrows="1" fold="1" page="1" pageScale="1" pageWidth="827" pageHeight="1169" math="0" shadow="0">
      <root>
        <mxCell id="0" />
        <mxCell id="1" parent="0" />
        <mxCell id="sHt7TGiqZ3LPdiu54P_--1" value="&lt;font face=&quot;Times New Roman&quot;&gt;管理员&lt;/font&gt;" style="rounded=0;whiteSpace=wrap;html=1;" vertex="1" parent="1">
          <mxGeometry x="120" y="80" width="120" height="60" as="geometry" />
        </mxCell>
        <mxCell id="sHt7TGiqZ3LPdiu54P_--2" value="&lt;font face=&quot;Times New Roman&quot;&gt;管理&lt;/font&gt;" style="rhombus;whiteSpace=wrap;html=1;" vertex="1" parent="1">
          <mxGeometry x="140" y="170" width="80" height="80" as="geometry" />
        </mxCell>
        <mxCell id="sHt7TGiqZ3LPdiu54P_--3" value="" style="endArrow=none;html=1;rounded=0;entryX=0.5;entryY=1;entryDx=0;entryDy=0;exitX=0.5;exitY=0;exitDx=0;exitDy=0;" edge="1" parent="1" source="sHt7TGiqZ3LPdiu54P_--2" target="sHt7TGiqZ3LPdiu54P_--1">
          <mxGeometry width="50" height="50" relative="1" as="geometry">
            <mxPoint x="150" y="190" as="sourcePoint" />
            <mxPoint x="200" y="140" as="targetPoint" />
          </mxGeometry>
        </mxCell>
        <mxCell id="sHt7TGiqZ3LPdiu54P_--11" value="1" style="edgeLabel;html=1;align=center;verticalAlign=middle;resizable=0;points=[];fontFamily=Times New Roman;" vertex="1" connectable="0" parent="sHt7TGiqZ3LPdiu54P_--3">
          <mxGeometry x="0.0296" relative="1" as="geometry">
            <mxPoint as="offset" />
          </mxGeometry>
        </mxCell>
        <mxCell id="sHt7TGiqZ3LPdiu54P_--22" style="edgeStyle=orthogonalEdgeStyle;rounded=0;orthogonalLoop=1;jettySize=auto;html=1;exitX=1;exitY=0.5;exitDx=0;exitDy=0;entryX=0;entryY=0.5;entryDx=0;entryDy=0;endArrow=none;startFill=0;" edge="1" parent="1" source="sHt7TGiqZ3LPdiu54P_--5" target="sHt7TGiqZ3LPdiu54P_--21">
          <mxGeometry relative="1" as="geometry">
            <Array as="points">
              <mxPoint x="240" y="340" />
            </Array>
          </mxGeometry>
        </mxCell>
        <mxCell id="sHt7TGiqZ3LPdiu54P_--23" value="1" style="edgeLabel;html=1;align=center;verticalAlign=middle;resizable=0;points=[];fontFamily=Times New Roman;" vertex="1" connectable="0" parent="sHt7TGiqZ3LPdiu54P_--22">
          <mxGeometry x="0.0875" y="3" relative="1" as="geometry">
            <mxPoint as="offset" />
          </mxGeometry>
        </mxCell>
        <mxCell id="sHt7TGiqZ3LPdiu54P_--5" value="&lt;font face=&quot;Times New Roman&quot;&gt;普通用户&lt;/font&gt;" style="rounded=0;whiteSpace=wrap;html=1;" vertex="1" parent="1">
          <mxGeometry x="120" y="300" width="120" height="60" as="geometry" />
        </mxCell>
        <mxCell id="sHt7TGiqZ3LPdiu54P_--9" value="" style="endArrow=none;html=1;rounded=0;entryX=0.5;entryY=1;entryDx=0;entryDy=0;exitX=0.5;exitY=0;exitDx=0;exitDy=0;" edge="1" parent="1" source="sHt7TGiqZ3LPdiu54P_--5">
          <mxGeometry width="50" height="50" relative="1" as="geometry">
            <mxPoint x="179.76" y="280" as="sourcePoint" />
            <mxPoint x="179.76" y="250" as="targetPoint" />
          </mxGeometry>
        </mxCell>
        <mxCell id="sHt7TGiqZ3LPdiu54P_--10" value="&lt;font face=&quot;Times New Roman&quot;&gt;n&lt;/font&gt;" style="edgeLabel;html=1;align=center;verticalAlign=middle;resizable=0;points=[];" vertex="1" connectable="0" parent="sHt7TGiqZ3LPdiu54P_--9">
          <mxGeometry x="0.1829" relative="1" as="geometry">
            <mxPoint as="offset" />
          </mxGeometry>
        </mxCell>
        <mxCell id="sHt7TGiqZ3LPdiu54P_--14" value="" style="endArrow=none;html=1;rounded=0;entryX=0.5;entryY=1;entryDx=0;entryDy=0;" edge="1" parent="1" target="sHt7TGiqZ3LPdiu54P_--5">
          <mxGeometry width="50" height="50" relative="1" as="geometry">
            <mxPoint x="180" y="410" as="sourcePoint" />
            <mxPoint x="200" y="380" as="targetPoint" />
          </mxGeometry>
        </mxCell>
        <mxCell id="sHt7TGiqZ3LPdiu54P_--15" value="&lt;font face=&quot;Times New Roman&quot;&gt;1&lt;/font&gt;" style="edgeLabel;html=1;align=center;verticalAlign=middle;resizable=0;points=[];" vertex="1" connectable="0" parent="sHt7TGiqZ3LPdiu54P_--14">
          <mxGeometry x="0.3802" y="1" relative="1" as="geometry">
            <mxPoint as="offset" />
          </mxGeometry>
        </mxCell>
        <mxCell id="sHt7TGiqZ3LPdiu54P_--18" style="edgeStyle=orthogonalEdgeStyle;rounded=0;orthogonalLoop=1;jettySize=auto;html=1;exitX=1;exitY=0.5;exitDx=0;exitDy=0;endArrow=none;startFill=0;entryX=0;entryY=0.5;entryDx=0;entryDy=0;" edge="1" parent="1" source="sHt7TGiqZ3LPdiu54P_--16" target="sHt7TGiqZ3LPdiu54P_--17">
          <mxGeometry relative="1" as="geometry">
            <mxPoint x="330" y="449.66666666666674" as="targetPoint" />
          </mxGeometry>
        </mxCell>
        <mxCell id="sHt7TGiqZ3LPdiu54P_--20" value="&lt;font face=&quot;Times New Roman&quot;&gt;n&lt;/font&gt;" style="edgeLabel;html=1;align=center;verticalAlign=middle;resizable=0;points=[];" vertex="1" connectable="0" parent="sHt7TGiqZ3LPdiu54P_--18">
          <mxGeometry x="0.0438" y="1" relative="1" as="geometry">
            <mxPoint as="offset" />
          </mxGeometry>
        </mxCell>
        <mxCell id="sHt7TGiqZ3LPdiu54P_--16" value="提供" style="rhombus;whiteSpace=wrap;html=1;" vertex="1" parent="1">
          <mxGeometry x="140" y="410" width="80" height="80" as="geometry" />
        </mxCell>
        <mxCell id="sHt7TGiqZ3LPdiu54P_--52" style="edgeStyle=orthogonalEdgeStyle;rounded=0;orthogonalLoop=1;jettySize=auto;html=1;entryX=0;entryY=0.5;entryDx=0;entryDy=0;endArrow=none;startFill=0;" edge="1" parent="1" source="sHt7TGiqZ3LPdiu54P_--17" target="sHt7TGiqZ3LPdiu54P_--51">
          <mxGeometry relative="1" as="geometry" />
        </mxCell>
        <mxCell id="sHt7TGiqZ3LPdiu54P_--53" value="&lt;font face=&quot;Times New Roman&quot;&gt;1&lt;/font&gt;" style="edgeLabel;html=1;align=center;verticalAlign=middle;resizable=0;points=[];" vertex="1" connectable="0" parent="sHt7TGiqZ3LPdiu54P_--52">
          <mxGeometry x="0.2057" relative="1" as="geometry">
            <mxPoint as="offset" />
          </mxGeometry>
        </mxCell>
        <mxCell id="sHt7TGiqZ3LPdiu54P_--17" value="模型数据" style="rounded=0;whiteSpace=wrap;html=1;" vertex="1" parent="1">
          <mxGeometry x="380" y="420" width="120" height="60" as="geometry" />
        </mxCell>
        <mxCell id="sHt7TGiqZ3LPdiu54P_--31" style="edgeStyle=orthogonalEdgeStyle;rounded=0;orthogonalLoop=1;jettySize=auto;html=1;exitX=1;exitY=0.5;exitDx=0;exitDy=0;entryX=0;entryY=0.25;entryDx=0;entryDy=0;endArrow=none;startFill=0;" edge="1" parent="1" source="sHt7TGiqZ3LPdiu54P_--21" target="sHt7TGiqZ3LPdiu54P_--27">
          <mxGeometry relative="1" as="geometry" />
        </mxCell>
        <mxCell id="sHt7TGiqZ3LPdiu54P_--44" value="&lt;font face=&quot;Times New Roman&quot;&gt;n&lt;/font&gt;" style="edgeLabel;html=1;align=center;verticalAlign=middle;resizable=0;points=[];" vertex="1" connectable="0" parent="sHt7TGiqZ3LPdiu54P_--31">
          <mxGeometry x="0.0444" y="3" relative="1" as="geometry">
            <mxPoint as="offset" />
          </mxGeometry>
        </mxCell>
        <mxCell id="sHt7TGiqZ3LPdiu54P_--21" value="浏览" style="rhombus;whiteSpace=wrap;html=1;" vertex="1" parent="1">
          <mxGeometry x="320" y="310" width="80" height="60" as="geometry" />
        </mxCell>
        <mxCell id="sHt7TGiqZ3LPdiu54P_--25" value="&lt;font face=&quot;Times New Roman&quot;&gt;每个赛季参加场数和平均得分&lt;/font&gt;" style="rounded=0;whiteSpace=wrap;html=1;" vertex="1" parent="1">
          <mxGeometry x="500" y="130" width="130" height="40" as="geometry" />
        </mxCell>
        <mxCell id="sHt7TGiqZ3LPdiu54P_--26" value="每个赛季平均上场时间和效率" style="rounded=0;whiteSpace=wrap;html=1;fontStyle=0;fontFamily=Times New Roman;" vertex="1" parent="1">
          <mxGeometry x="500" y="250" width="130" height="40" as="geometry" />
        </mxCell>
        <mxCell id="sHt7TGiqZ3LPdiu54P_--27" value="&lt;font face=&quot;Times New Roman&quot;&gt;每个赛季三分、罚球、进攻、防守&lt;/font&gt;" style="rounded=0;whiteSpace=wrap;html=1;" vertex="1" parent="1">
          <mxGeometry x="500" y="330" width="130" height="40" as="geometry" />
        </mxCell>
        <mxCell id="sHt7TGiqZ3LPdiu54P_--28" value="&lt;font face=&quot;Times New Roman&quot;&gt;每个赛季场均篮板、助攻、抢断、盖帽的得分&lt;/font&gt;" style="rounded=0;whiteSpace=wrap;html=1;" vertex="1" parent="1">
          <mxGeometry x="500" y="190" width="130" height="40" as="geometry" />
        </mxCell>
        <mxCell id="sHt7TGiqZ3LPdiu54P_--32" value="浏览" style="rhombus;whiteSpace=wrap;html=1;" vertex="1" parent="1">
          <mxGeometry x="320" y="130" width="80" height="50" as="geometry" />
        </mxCell>
        <mxCell id="sHt7TGiqZ3LPdiu54P_--33" value="浏览" style="rhombus;whiteSpace=wrap;html=1;" vertex="1" parent="1">
          <mxGeometry x="320" y="190" width="80" height="50" as="geometry" />
        </mxCell>
        <mxCell id="sHt7TGiqZ3LPdiu54P_--34" value="浏览" style="rhombus;whiteSpace=wrap;html=1;" vertex="1" parent="1">
          <mxGeometry x="320" y="250" width="80" height="50" as="geometry" />
        </mxCell>
        <mxCell id="sHt7TGiqZ3LPdiu54P_--37" style="edgeStyle=orthogonalEdgeStyle;rounded=0;orthogonalLoop=1;jettySize=auto;html=1;exitX=1;exitY=0.5;exitDx=0;exitDy=0;entryX=0;entryY=0.25;entryDx=0;entryDy=0;endArrow=none;startFill=0;" edge="1" parent="1">
          <mxGeometry relative="1" as="geometry">
            <mxPoint x="400" y="274.65999999999997" as="sourcePoint" />
            <mxPoint x="500" y="274.65999999999997" as="targetPoint" />
          </mxGeometry>
        </mxCell>
        <mxCell id="sHt7TGiqZ3LPdiu54P_--43" value="&lt;font face=&quot;Times New Roman&quot;&gt;n&lt;/font&gt;" style="edgeLabel;html=1;align=center;verticalAlign=middle;resizable=0;points=[];" vertex="1" connectable="0" parent="sHt7TGiqZ3LPdiu54P_--37">
          <mxGeometry x="0.0444" y="-2" relative="1" as="geometry">
            <mxPoint as="offset" />
          </mxGeometry>
        </mxCell>
        <mxCell id="sHt7TGiqZ3LPdiu54P_--38" style="edgeStyle=orthogonalEdgeStyle;rounded=0;orthogonalLoop=1;jettySize=auto;html=1;exitX=1;exitY=0.5;exitDx=0;exitDy=0;entryX=0;entryY=0.25;entryDx=0;entryDy=0;endArrow=none;startFill=0;" edge="1" parent="1">
          <mxGeometry relative="1" as="geometry">
            <mxPoint x="400" y="214.66" as="sourcePoint" />
            <mxPoint x="500" y="214.66" as="targetPoint" />
          </mxGeometry>
        </mxCell>
        <mxCell id="sHt7TGiqZ3LPdiu54P_--42" value="&lt;font face=&quot;Times New Roman&quot;&gt;n&lt;/font&gt;" style="edgeLabel;html=1;align=center;verticalAlign=middle;resizable=0;points=[];" vertex="1" connectable="0" parent="sHt7TGiqZ3LPdiu54P_--38">
          <mxGeometry x="0.0168" relative="1" as="geometry">
            <mxPoint as="offset" />
          </mxGeometry>
        </mxCell>
        <mxCell id="sHt7TGiqZ3LPdiu54P_--39" style="edgeStyle=orthogonalEdgeStyle;rounded=0;orthogonalLoop=1;jettySize=auto;html=1;exitX=1;exitY=0.5;exitDx=0;exitDy=0;entryX=0;entryY=0.25;entryDx=0;entryDy=0;endArrow=none;startFill=0;" edge="1" parent="1">
          <mxGeometry relative="1" as="geometry">
            <mxPoint x="400" y="154.66" as="sourcePoint" />
            <mxPoint x="500" y="154.66" as="targetPoint" />
          </mxGeometry>
        </mxCell>
        <mxCell id="sHt7TGiqZ3LPdiu54P_--40" value="&lt;font face=&quot;Times New Roman&quot;&gt;n&lt;/font&gt;" style="edgeLabel;html=1;align=center;verticalAlign=middle;resizable=0;points=[];" vertex="1" connectable="0" parent="sHt7TGiqZ3LPdiu54P_--39">
          <mxGeometry x="-0.0108" y="2" relative="1" as="geometry">
            <mxPoint as="offset" />
          </mxGeometry>
        </mxCell>
        <mxCell id="sHt7TGiqZ3LPdiu54P_--45" style="edgeStyle=orthogonalEdgeStyle;rounded=0;orthogonalLoop=1;jettySize=auto;html=1;exitX=1;exitY=0;exitDx=0;exitDy=0;entryX=0;entryY=0.5;entryDx=0;entryDy=0;endArrow=none;startFill=0;" edge="1" parent="1" source="sHt7TGiqZ3LPdiu54P_--5">
          <mxGeometry relative="1" as="geometry">
            <mxPoint x="240" y="265" as="sourcePoint" />
            <mxPoint x="320" y="275" as="targetPoint" />
            <Array as="points">
              <mxPoint x="240" y="275" />
            </Array>
          </mxGeometry>
        </mxCell>
        <mxCell id="sHt7TGiqZ3LPdiu54P_--46" value="1" style="edgeLabel;html=1;align=center;verticalAlign=middle;resizable=0;points=[];fontFamily=Times New Roman;" vertex="1" connectable="0" parent="sHt7TGiqZ3LPdiu54P_--45">
          <mxGeometry x="0.0875" y="3" relative="1" as="geometry">
            <mxPoint as="offset" />
          </mxGeometry>
        </mxCell>
        <mxCell id="sHt7TGiqZ3LPdiu54P_--47" style="edgeStyle=orthogonalEdgeStyle;rounded=0;orthogonalLoop=1;jettySize=auto;html=1;entryX=0;entryY=0.5;entryDx=0;entryDy=0;endArrow=none;startFill=0;" edge="1" parent="1">
          <mxGeometry relative="1" as="geometry">
            <mxPoint x="240" y="280" as="sourcePoint" />
            <mxPoint x="320" y="215" as="targetPoint" />
            <Array as="points">
              <mxPoint x="240" y="215" />
            </Array>
          </mxGeometry>
        </mxCell>
        <mxCell id="sHt7TGiqZ3LPdiu54P_--48" value="1" style="edgeLabel;html=1;align=center;verticalAlign=middle;resizable=0;points=[];fontFamily=Times New Roman;" vertex="1" connectable="0" parent="sHt7TGiqZ3LPdiu54P_--47">
          <mxGeometry x="0.0875" y="3" relative="1" as="geometry">
            <mxPoint x="16" y="3" as="offset" />
          </mxGeometry>
        </mxCell>
        <mxCell id="sHt7TGiqZ3LPdiu54P_--49" style="edgeStyle=orthogonalEdgeStyle;rounded=0;orthogonalLoop=1;jettySize=auto;html=1;endArrow=none;startFill=0;entryX=0;entryY=0.5;entryDx=0;entryDy=0;" edge="1" parent="1" target="sHt7TGiqZ3LPdiu54P_--32">
          <mxGeometry relative="1" as="geometry">
            <mxPoint x="240" y="215" as="sourcePoint" />
            <mxPoint x="320" y="160" as="targetPoint" />
            <Array as="points">
              <mxPoint x="240" y="160" />
              <mxPoint x="320" y="160" />
            </Array>
          </mxGeometry>
        </mxCell>
        <mxCell id="sHt7TGiqZ3LPdiu54P_--50" value="1" style="edgeLabel;html=1;align=center;verticalAlign=middle;resizable=0;points=[];fontFamily=Times New Roman;" vertex="1" connectable="0" parent="sHt7TGiqZ3LPdiu54P_--49">
          <mxGeometry x="0.0875" y="3" relative="1" as="geometry">
            <mxPoint x="16" y="3" as="offset" />
          </mxGeometry>
        </mxCell>
        <mxCell id="sHt7TGiqZ3LPdiu54P_--54" style="edgeStyle=orthogonalEdgeStyle;rounded=0;orthogonalLoop=1;jettySize=auto;html=1;entryX=0.5;entryY=0;entryDx=0;entryDy=0;endArrow=none;startFill=0;" edge="1" parent="1" source="sHt7TGiqZ3LPdiu54P_--51" target="sHt7TGiqZ3LPdiu54P_--1">
          <mxGeometry relative="1" as="geometry">
            <Array as="points">
              <mxPoint x="680" y="60" />
              <mxPoint x="180" y="60" />
            </Array>
          </mxGeometry>
        </mxCell>
        <mxCell id="sHt7TGiqZ3LPdiu54P_--55" value="&lt;font face=&quot;Times New Roman&quot;&gt;1&lt;/font&gt;" style="edgeLabel;html=1;align=center;verticalAlign=middle;resizable=0;points=[];" vertex="1" connectable="0" parent="sHt7TGiqZ3LPdiu54P_--54">
          <mxGeometry x="0.3162" y="-1" relative="1" as="geometry">
            <mxPoint as="offset" />
          </mxGeometry>
        </mxCell>
        <mxCell id="sHt7TGiqZ3LPdiu54P_--51" value="&lt;font face=&quot;Times New Roman&quot;&gt;管理&lt;/font&gt;" style="rhombus;whiteSpace=wrap;html=1;" vertex="1" parent="1">
          <mxGeometry x="640" y="410" width="80" height="80" as="geometry" />
        </mxCell>
      </root>
    </mxGraphModel>
  </diagram>
</mxfile>
